<svg xmlns="http://www.w3.org/2000/svg" viewBox="0 0 512 512"><path fill="#5a8bb0" d="M376.471 210.824h60.235v210.824h-60.235z"/><g fill="#93c7ef"><path d="M75.294 210.824h60.235v210.824H75.294zM173.176 346.353v82.824C173.176 474.921 210.259 512 256 512s82.824-37.079 82.824-82.824v-82.824H173.176z"/></g><path d="M256 512c45.741 0 82.824-37.079 82.824-82.824v-82.824H256" fill="#5a8bb0"/><path d="M406.588 451.765V150.588C406.588 67.42 339.17 0 256 0S105.412 67.42 105.412 150.588v301.176h301.176z" fill="#cce9f9"/><path d="M406.588 451.765V150.588C406.588 67.42 339.17 0 256 0v451.765h150.588z" fill="#93c7ef"/><g fill="#3c5d76"><path d="M180.706 120.471h150.588v45.176H180.706zM210.824 210.824C210.824 235.773 231.052 256 256 256s45.176-20.227 45.176-45.176h-90.352z"/></g><g fill="#1e2e3b"><path d="M256 120.471h75.294v45.176H256zM256 210.824V256c24.948 0 45.176-20.227 45.176-45.176H256z"/></g><circle cx="165.647" cy="353.882" r="22.588" fill="#3c5d76"/><g fill="#1e2e3b"><circle cx="256" cy="353.882" r="22.588"/><circle cx="346.353" cy="353.882" r="22.588"/></g></svg>