<svg xmlns="http://www.w3.org/2000/svg" viewBox="0 0 447.999 447.999"><path d="M140 24C61.858 24 0 100.072 0 192s61.858 168 140 168c18.126 0 35.32-4.252 51.125-11.688 25.283 47.914 68.739 75.623 116.844 75.688h.03c78.151.01 140.006-76.061 140-168 .005-91.939-61.849-168.008-140-168-17.824 0-34.669 3.598-51.125 11.563C231.968 54.223 189.234 23.999 140 24z" fill="#2c6083"/><path d="M140 40.033c67.644 0 123.969 67.186 123.969 151.969 0 84.783-56.325 151.969-123.969 151.969S16.031 276.787 16.031 192.002c0-84.783 56.325-151.969 123.969-151.969z" fill="#fae3c7"/><path d="M308 104.033c67.652-.008 123.974 67.174 123.969 151.969.006 84.793-56.317 152.008-123.969 152-42.154 0-79.962-23.713-102.844-67.344C249.867 312.396 280 256.111 280 192.002c0-28.08-5.818-54.658-16.063-78.063 14.185-6.894 28.217-9.906 44.063-9.906z" fill="#e2c5ba"/><g fill="#2c6083"><path d="M363.719 111.986a8.01 8.01 0 0 0-6.031 3.031l-32.344 39.594c-25.789 30.605-30.067 74.033-10.75 109.094l.062.16c18.485 32.387 13.03 73.031-13.313 99.406l-38.938 39a8.013 8.013 0 1 0 11.344 11.313l38.938-38.969c31.362-31.398 37.88-80.02 15.938-118.594-16.141-29.295-12.577-65.461 8.969-91.031l.062-.16 32.438-39.688a8.013 8.013 0 0 0-6.375-13.188v.032zM183.75 40.018a8.016 8.016 0 0 0-6.063 3l-32.344 39.623c-25.789 30.605-30.067 74.004-10.75 109.064l.062.16c18.485 32.387 13.03 73.063-13.313 99.438l-38.937 38.969a8.013 8.013 0 1 0 11.344 11.313l38.938-38.969c31.362-31.398 37.88-80.02 15.937-118.594-16.141-29.295-12.577-65.461 8.969-91.031.032-.053.064-.105.094-.16l32.406-39.688a8.014 8.014 0 0 0-6.344-13.154l.001.029z"/></g></svg>