<svg xmlns="http://www.w3.org/2000/svg" viewBox="0 0 57 57"><path d="M48.198 48.309s-2.947-2.929-4.237-4.193a.901.901 0 0 1-.065-1.207c6.138-7.799 5.539-19.17-1.81-26.264-7.332-7.079-19.181-7.301-26.756-.483-8.433 7.59-8.69 20.59-.77 28.51 6.538 6.538 16.537 7.501 24.098 2.894a1.027 1.027 0 0 1 1.29.156c1.295 1.365 4.36 4.476 4.36 4.476a2.757 2.757 0 0 0 3.889 0 2.758 2.758 0 0 0 .001-3.889z" fill="#f2f2f2"/><path d="M44.281 11c4.366 0 7.906-2.462 7.906-5.5S48.648 0 44.281 0c-2.067 0-3.947.553-5.354 1.457C36.508 3.012 33.769 4 30.893 4H10.375A1.38 1.38 0 0 0 9 5.375v.25A1.38 1.38 0 0 0 10.375 7h20.518c2.876 0 5.615.988 8.034 2.543 1.407.904 3.287 1.457 5.354 1.457z" fill="#e6e6e6"/><path d="M43.961 44.116c1.203 1.179 3.849 3.807 4.197 4.153A26.398 26.398 0 0 0 55 30.5c0-7.809-3.379-14.828-8.754-19.678-.629.112-1.285.178-1.965.178-2.067 0-3.947-.553-5.354-1.457C36.508 7.988 33.769 7 30.893 7H16.256C7.786 11.422 2 20.283 2 30.5 2 45.135 13.865 57 28.5 57c5.816 0 11.19-1.878 15.56-5.055a457.27 457.27 0 0 1-4.112-4.224 1.029 1.029 0 0 0-1.29-.156c-7.561 4.607-17.56 3.645-24.098-2.894-7.92-7.92-7.663-20.92.771-28.51 7.575-6.818 19.424-6.596 26.756.483 7.348 7.094 7.948 18.466 1.81 26.265a.9.9 0 0 0 .064 1.207z" fill="#d2d5d7"/><circle cx="28.449" cy="30.783" r="15.5" fill="#6a3311"/><path d="M36.615 23.617a.997.997 0 0 1-.707-.293 10.573 10.573 0 0 0-2.731-1.975.999.999 0 1 1 .897-1.787c1.2.602 2.293 1.392 3.249 2.348a.999.999 0 0 1-.708 1.707zM20.284 23.617a.999.999 0 0 1-.707-1.707 12.485 12.485 0 0 1 10.228-3.603c.549.06.946.553.887 1.102a1.003 1.003 0 0 1-1.102.887 10.524 10.524 0 0 0-8.599 3.028.993.993 0 0 1-.707.293z" fill="#a46f3e"/></svg>