<svg xmlns="http://www.w3.org/2000/svg" viewBox="0 0 512 512"><path d="M256.119 0C149.298 0 62.686 160.625 62.686 335.891c0 68.037 34.014 135.246 85.385 176.109h216.096c51.372-40.863 85.147-108.072 85.147-176.109C449.313 160.625 362.951 0 256.119 0z" fill="#f7ee00"/><path d="M256.119 0C149.298 0 62.686 160.625 62.686 335.891c0 68.037 34.014 135.246 85.385 176.109h108.048V0z" fill="#fffc99"/><g fill="#0baebc"><path d="M105.586 263.638h31.347V296.9h-31.347zM159.482 263.638h31.347V296.9h-31.347zM213.378 263.638h31.347V296.9h-31.347z"/></g><g fill="#088690"><path d="M267.274 263.638h31.347V296.9h-31.347zM321.18 263.638h31.347V296.9H321.18zM375.076 263.638h31.347V296.9h-31.347z"/><circle cx="256.114" cy="423.424" r="37.371"/><path d="M449.05 319.173H62.95a533.96 533.96 0 0 0-.264 16.718c0 4.884.195 9.762.54 14.629h385.552c.342-4.866.536-9.745.536-14.629a540.198 540.198 0 0 0-.264-16.718z"/></g><g fill="#0baebc"><path d="M256.119 319.173H62.95a533.96 533.96 0 0 0-.264 16.718c0 4.884.195 9.762.54 14.629H256.12v-31.347h-.001zM256.119 386.052c-20.639 0-37.371 16.73-37.371 37.371 0 20.64 16.732 37.371 37.371 37.371v-74.742z"/></g></svg>