<svg xmlns="http://www.w3.org/2000/svg" viewBox="0 0 507.2 507.2"><path d="M413.6 172.8c0 140.8-76 290.4-160 290.4s-160-148.8-160-290.4S170.4 0 253.6 0s160 32 160 172.8z" fill="#0b7f9e"/><path d="M253.6 0c83.2 0 160 32 160 172.8s-76 290.4-160 290.4-160-148.8-160-290.4" fill="#0b6382"/><path d="M253.6 0c83.2 0 160 32 160 172.8s-76 290.4-160 290.4" fill="#00233f"/><path d="M216 80c0 13.6-11.2 35.2-25.6 35.2-13.6 0-25.6-20.8-25.6-35.2 0-13.6 11.2-25.6 25.6-25.6C204 54.4 216 65.6 216 80z" fill="#022728"/><circle cx="190.4" cy="80" r="25.6" fill="#00fff2"/><path d="M172 61.6c9.6-9.6 25.6-9.6 36 0 9.6 9.6 9.6 25.6 0 36" fill="#16d8d8"/><circle cx="190.4" cy="80" r="14.4" fill="#00fff2"/><path d="M190.4 94.4c-8 0-14.4-6.4-14.4-14.4s6.4-14.4 14.4-14.4" fill="#16d8d8"/><g fill="#ebfffd"><circle cx="179.2" cy="68.8" r="8.8"/><circle cx="204.8" cy="92.8" r="4"/></g><path d="M342.4 80c0 13.6-11.2 35.2-25.6 35.2-13.6 0-25.6-20.8-25.6-35.2 0-13.6 11.2-25.6 25.6-25.6 14.4 0 25.6 11.2 25.6 25.6z" fill="#0b6382"/><circle cx="316.8" cy="80" r="25.6" fill="#00fff2"/><path d="M299.2 61.6c9.6-9.6 25.6-9.6 36 0 9.6 9.6 9.6 25.6 0 36" fill="#16d8d8"/><circle cx="316.8" cy="80" r="14.4" fill="#00fff2"/><path d="M316.8 94.4c-8 0-14.4-6.4-14.4-14.4s6.4-14.4 14.4-14.4" fill="#16d8d8"/><g fill="#ebfffd"><circle cx="305.6" cy="68.8" r="8.8"/><circle cx="331.2" cy="92.8" r="4"/></g><ellipse cx="253.6" cy="495.2" rx="104" ry="12" fill="#91c6c2"/><path d="M191.2 141.6l-33.6-40H96l-1.6 16h56.8l38.4 40h56v-16h-54.4z" fill="#00fff2"/><path fill="#16d8d8" d="M93.6 117.6h57.6l38.4 40h56v-4.8l-55.2-4.8-32.8-38.4"/><path d="M316 141.6l33.6-40h61.6l1.6 16H356l-38.4 40h-56v-16H316z" fill="#00fff2"/><path fill="#16d8d8" d="M413.6 117.6H356l-38.4 40h-56v-4.8l55.2-4.8 32.8-38.4"/><circle cx="253.6" cy="147.2" r="16" fill="#00fff2"/><path d="M269.6 147.2c0 8.8-7.2 16-16 16s-16-7.2-16-16" fill="#16d8d8"/><path d="M94.4 173.6l-.8-1.6c0 .8-.8.8-.8 1.6 0 93.6 32 188.8 80 243.2v-216l-29.6-27.2H94.4z" fill="#0b7f9e"/><path d="M94.4 168l-.8 1.6c0 .8-.8 2.4-.8 3.2 0 93.6 32 190.4 80 244.8v-220" fill="#00233f"/><path d="M412 173.6l.8-1.6c0 .8.8.8.8 1.6 0 93.6-32 184.8-80 240V200.8l29.6-27.2H412z" fill="#0b7f9e"/><path d="M412.8 168v1.6c0 .8.8 2.4.8 3.2 0 93.6-32 190.4-80 244.8v-220" fill="#02405b"/><circle cx="50.4" cy="304.8" r="40.8" fill="#0b6382"/><g fill="#00233f"><path d="M50.4 264.8c22.4 0 40.8 18.4 40.8 40.8s-18.4 40.8-40.8 40.8"/><circle cx="50.4" cy="247.2" r="9.6"/></g><path fill="#16d8d8" d="M53.6 237.6v-40h24v-32h16"/><ellipse transform="rotate(-94.525 97.604 209.584)" cx="97.595" cy="209.584" rx="40.001" ry="13.6" fill="#0b7f9e"/><ellipse transform="rotate(-94.52 92.779 209.608)" cx="92.778" cy="209.609" rx="24" ry="5.6" fill="#0b6382"/><g fill="#16d8d8"><circle cx="127.2" cy="211.2" r="3.2"/><circle cx="140" cy="207.2" r="3.2"/><circle cx="152.8" cy="204" r="3.2"/></g><path d="M69.6 313.6c0 2.4-1.6 4-4 4h-32c-2.4 0-4-1.6-4-4s1.6-4 4-4h32c2.4 0 4 1.6 4 4z" fill="#00fff2"/><circle cx="456.8" cy="304.8" r="40.8" fill="#0b6382"/><g fill="#00233f"><path d="M456.8 264.8c-22.4 0-40.8 18.4-40.8 40.8s18.4 40.8 40.8 40.8"/><circle cx="456.8" cy="247.2" r="9.6"/></g><path fill="#16d8d8" d="M453.6 237.6v-40h-24v-32h-16"/><ellipse transform="rotate(94.525 410.014 209.826)" cx="410.015" cy="209.81" rx="40.001" ry="13.6" fill="#0b7f9e"/><ellipse transform="rotate(94.52 414.235 210.214)" cx="414.238" cy="210.213" rx="24" ry="5.6" fill="#0b6382"/><g fill="#16d8d8"><circle cx="380" cy="211.2" r="3.2"/><circle cx="367.2" cy="207.2" r="3.2"/><circle cx="354.4" cy="204" r="3.2"/></g><path d="M477.6 313.6c0-2.4-1.6-4-4-4h-32c-2.4 0-4 1.6-4 4s1.6 4 4 4h32c2.4 0 4-1.6 4-4z" fill="#00fff2"/></svg>