<?xml version="1.0" encoding="iso-8859-1"?>
<!-- Generator: Adobe Illustrator 19.0.0, SVG Export Plug-In . SVG Version: 6.00 Build 0)  -->
<svg version="1.1" id="Layer_1" xmlns="http://www.w3.org/2000/svg" xmlns:xlink="http://www.w3.org/1999/xlink" x="0px" y="0px"
	 viewBox="0 0 512 512" style="enable-background:new 0 0 512 512;" xml:space="preserve">
<rect x="376.471" y="210.824" style="fill:#5A8BB0;" width="60.235" height="210.824"/>
<g>
	<rect x="75.294" y="210.824" style="fill:#93C7EF;" width="60.235" height="210.824"/>
	<path style="fill:#93C7EF;" d="M173.176,346.353v82.824C173.176,474.921,210.259,512,256,512s82.824-37.079,82.824-82.824v-82.824
		H173.176z"/>
</g>
<path style="fill:#5A8BB0;" d="M256,512c45.741,0,82.824-37.079,82.824-82.824v-82.824H256"/>
<path style="fill:#CCE9F9;" d="M406.588,451.765V150.588C406.588,67.42,339.17,0,256,0S105.412,67.42,105.412,150.588v301.176
	H406.588z"/>
<path style="fill:#93C7EF;" d="M406.588,451.765V150.588C406.588,67.42,339.17,0,256,0c0,114.447,0,451.765,0,451.765H406.588z"/>
<g>
	<rect x="180.706" y="120.471" style="fill:#3C5D76;" width="150.588" height="45.176"/>
	<path style="fill:#3C5D76;" d="M210.824,210.824C210.824,235.773,231.052,256,256,256l0,0c24.948,0,45.176-20.227,45.176-45.176
		H210.824z"/>
</g>
<g>
	<rect x="256" y="120.471" style="fill:#1E2E3B;" width="75.294" height="45.176"/>
	<path style="fill:#1E2E3B;" d="M256,210.824c0,24.949,0,33.129,0,45.176l0,0c24.948,0,45.176-20.227,45.176-45.176H256z"/>
</g>
<circle style="fill:#3C5D76;" cx="165.647" cy="353.882" r="22.588"/>
<g>
	<circle style="fill:#1E2E3B;" cx="256" cy="353.882" r="22.588"/>
	<circle style="fill:#1E2E3B;" cx="346.353" cy="353.882" r="22.588"/>
</g>
<g>
</g>
<g>
</g>
<g>
</g>
<g>
</g>
<g>
</g>
<g>
</g>
<g>
</g>
<g>
</g>
<g>
</g>
<g>
</g>
<g>
</g>
<g>
</g>
<g>
</g>
<g>
</g>
<g>
</g>
</svg>
