<?xml version="1.0" encoding="iso-8859-1"?>
<!-- Generator: Adobe Illustrator 19.0.0, SVG Export Plug-In . SVG Version: 6.00 Build 0)  -->
<svg version="1.1" id="Layer_1" xmlns="http://www.w3.org/2000/svg" xmlns:xlink="http://www.w3.org/1999/xlink" x="0px" y="0px"
	 viewBox="0 0 447.999 447.999" style="enable-background:new 0 0 447.999 447.999;" xml:space="preserve">
<g transform="translate(0 -1020.36)" shape-rendering="auto" image-rendering="auto" color-rendering="auto" color-interpolation="sRGB">
	<path style="fill:#2C6083;" d="M140,1044.36c-78.142,0-140,76.072-140,168c0,91.928,61.858,168,140,168
		c18.126,0,35.32-4.252,51.125-11.688c25.283,47.914,68.739,75.623,116.844,75.688c0.01,0,0.02,0,0.03,0
		c78.151,0.01,140.006-76.061,140-168c0.005-91.939-61.849-168.008-140-168c-17.824,0-34.669,3.598-51.125,11.563
		C231.968,1074.583,189.234,1044.359,140,1044.36L140,1044.36z"/>
	<path style="fill:#FAE3C7;" d="M140,1060.393c67.644,0,123.969,67.186,123.969,151.969c0,84.783-56.325,151.969-123.969,151.969
		s-123.969-67.184-123.969-151.969C16.031,1127.579,72.356,1060.393,140,1060.393z"/>
	<path style="fill:#E2C5BA;" d="M308,1124.393c67.652-0.008,123.974,67.174,123.969,151.969
		c0.006,84.793-56.317,152.008-123.969,152c-42.154,0-79.962-23.713-102.844-67.344c44.711-28.262,74.844-84.547,74.844-148.656
		c0-28.08-5.818-54.658-16.063-78.063C278.122,1127.405,292.154,1124.393,308,1124.393z"/>
	<g>
		<path style="fill:#2C6083;" d="M363.719,1132.346c-2.359,0.072-4.565,1.182-6.031,3.031l-32.344,39.594
			c-25.789,30.605-30.067,74.033-10.75,109.094c0.02,0.053,0.041,0.107,0.062,0.16c18.485,32.387,13.03,73.031-13.313,99.406
			l-38.938,39c-3.212,3.045-3.349,8.115-0.305,11.328s8.116,3.35,11.329,0.305c0.11-0.104,0.216-0.211,0.32-0.32l38.938-38.969
			c31.362-31.398,37.88-80.02,15.938-118.594c-16.141-29.295-12.577-65.461,8.969-91.031c0.021-0.053,0.042-0.107,0.062-0.16
			l32.438-39.688c2.86-3.377,2.44-8.434-0.937-11.293c-1.515-1.283-3.453-1.959-5.438-1.895L363.719,1132.346z"/>
		<path style="fill:#2C6083;" d="M183.75,1060.378c-2.365,0.057-4.583,1.154-6.063,3l-32.344,39.623
			c-25.789,30.605-30.067,74.004-10.75,109.064c0.02,0.053,0.041,0.107,0.062,0.16c18.485,32.387,13.03,73.063-13.313,99.438
			l-38.937,38.969c-3.212,3.045-3.349,8.115-0.305,11.328s8.116,3.35,11.329,0.305c0.11-0.104,0.216-0.211,0.32-0.32l38.938-38.969
			c31.362-31.398,37.88-80.02,15.937-118.594c-16.141-29.295-12.577-65.461,8.969-91.031c0.032-0.053,0.064-0.105,0.094-0.16
			l32.406-39.688c2.841-3.395,2.392-8.447-1.002-11.289c-1.495-1.25-3.394-1.914-5.342-1.865L183.75,1060.378z"/>
	</g>
</g>
<g>
</g>
<g>
</g>
<g>
</g>
<g>
</g>
<g>
</g>
<g>
</g>
<g>
</g>
<g>
</g>
<g>
</g>
<g>
</g>
<g>
</g>
<g>
</g>
<g>
</g>
<g>
</g>
<g>
</g>
</svg>
