<?xml version="1.0" encoding="iso-8859-1"?>
<!-- Generator: Adobe Illustrator 19.0.0, SVG Export Plug-In . SVG Version: 6.00 Build 0)  -->
<svg version="1.1" id="Layer_1" xmlns="http://www.w3.org/2000/svg" xmlns:xlink="http://www.w3.org/1999/xlink" x="0px" y="0px"
	 viewBox="0 0 512 512" style="enable-background:new 0 0 512 512;" xml:space="preserve">
<path style="fill:#F7EE00;" d="M256.119,0C149.298,0,62.686,160.625,62.686,335.891l0,0c0,68.037,34.014,135.246,85.385,176.109
	h216.096c51.372-40.863,85.147-108.072,85.147-176.109l0,0C449.313,160.625,362.951,0,256.119,0z"/>
<path style="fill:#FFFC99;" d="M256.119,0C149.298,0,62.686,160.625,62.686,335.891c0,68.037,34.014,135.246,85.385,176.109h108.048
	V0z"/>
<g>
	<rect x="105.586" y="263.638" style="fill:#0BAEBC;" width="31.347" height="33.262"/>
	<rect x="159.482" y="263.638" style="fill:#0BAEBC;" width="31.347" height="33.262"/>
	<rect x="213.378" y="263.638" style="fill:#0BAEBC;" width="31.347" height="33.262"/>
</g>
<g>
	<rect x="267.274" y="263.638" style="fill:#088690;" width="31.347" height="33.262"/>
	<rect x="321.18" y="263.638" style="fill:#088690;" width="31.347" height="33.262"/>
	<rect x="375.076" y="263.638" style="fill:#088690;" width="31.347" height="33.262"/>
	<circle style="fill:#088690;" cx="256.114" cy="423.424" r="37.371"/>
	<path style="fill:#088690;" d="M449.05,319.173H62.95c-0.174,5.555-0.264,11.128-0.264,16.718c0,4.884,0.195,9.762,0.54,14.629
		h385.552c0.342-4.866,0.536-9.745,0.536-14.629C449.313,330.302,449.223,324.728,449.05,319.173z"/>
</g>
<g>
	<path style="fill:#0BAEBC;" d="M256.119,319.173H62.95c-0.174,5.555-0.264,11.128-0.264,16.718c0,4.884,0.195,9.762,0.54,14.629
		H256.12v-31.347H256.119z"/>
	<path style="fill:#0BAEBC;" d="M256.119,386.052c-20.639,0-37.371,16.73-37.371,37.371c0,20.64,16.732,37.371,37.371,37.371
		V386.052z"/>
</g>
<g>
</g>
<g>
</g>
<g>
</g>
<g>
</g>
<g>
</g>
<g>
</g>
<g>
</g>
<g>
</g>
<g>
</g>
<g>
</g>
<g>
</g>
<g>
</g>
<g>
</g>
<g>
</g>
<g>
</g>
</svg>
